<?xml version="1.0" encoding="utf-8"?>
<!-- Generator: Adobe Illustrator 16.0.0, SVG Export Plug-In . SVG Version: 6.00 Build 0)  -->
<!DOCTYPE svg PUBLIC "-//W3C//DTD SVG 1.1//EN" "http://www.w3.org/Graphics/SVG/1.1/DTD/svg11.dtd">
<svg version="1.1" id="Ebene_1" xmlns="http://www.w3.org/2000/svg" xmlns:xlink="http://www.w3.org/1999/xlink" x="0px" y="0px"
	 width="960px" height="560px" viewBox="0 0 960 560" enable-background="new 0 0 960 560" xml:space="preserve">
<path fill="#B6B6B6" d="M752.344,484.203L643.297,375.156c-4.922-4.922-11.594-7.656-18.594-7.656h-17.828
	C637.062,328.891,655,280.328,655,227.5C655,101.828,553.172,0,427.5,0S200,101.828,200,227.5S301.828,455,427.5,455
	c52.828,0,101.391-17.938,140-48.125v17.828c0,7,2.734,13.672,7.656,18.594l109.047,109.047c10.281,10.281,26.906,10.281,37.078,0
	l30.953-30.953C762.516,511.109,762.516,494.484,752.344,484.203z M427.5,367.5c-77.328,0-140-62.562-140-140
	c0-77.328,62.562-140,140-140c77.328,0,140,62.562,140,140C567.5,304.828,504.938,367.5,427.5,367.5z"/>
</svg>
